<mxfile host="app.diagrams.net" modified="2023-10-26T23:31:23.068Z" agent="Mozilla/5.0 (Windows NT 10.0; Win64; x64) AppleWebKit/537.36 (KHTML, like Gecko) Chrome/118.0.0.0 Safari/537.36 Edg/118.0.2088.69" etag="E_4uKN1NKQAD8UHxEj98" version="22.0.8" type="google">
  <diagram name="PÃ¡gina-1" id="NzQ-S5oHHCXLHP6W_gft">
    <mxGraphModel grid="1" page="1" gridSize="10" guides="1" tooltips="1" connect="1" arrows="1" fold="1" pageScale="1" pageWidth="1600" pageHeight="900" math="0" shadow="0">
      <root>
        <mxCell id="0" />
        <mxCell id="1" parent="0" />
        <mxCell id="BdMyhIaGQ416cWbxKwbg-16" style="rounded=0;orthogonalLoop=1;jettySize=auto;html=1;exitX=1;exitY=0.5;exitDx=0;exitDy=0;entryX=0;entryY=0;entryDx=0;entryDy=0;strokeWidth=3;" edge="1" parent="1" source="BdMyhIaGQ416cWbxKwbg-1" target="XvZ-zwVpQwH_oAg_rlwi-10">
          <mxGeometry relative="1" as="geometry">
            <mxPoint x="616" y="126.15999999999997" as="targetPoint" />
          </mxGeometry>
        </mxCell>
        <mxCell id="BlqDBkXr38ZcFcGv8f7b-12" style="rounded=0;orthogonalLoop=1;jettySize=auto;html=1;exitX=0;exitY=0.5;exitDx=0;exitDy=0;entryX=1;entryY=0;entryDx=0;entryDy=0;fillColor=#f8cecc;strokeWidth=3;" edge="1" parent="1" source="BdMyhIaGQ416cWbxKwbg-1" target="XvZ-zwVpQwH_oAg_rlwi-1">
          <mxGeometry relative="1" as="geometry">
            <mxPoint x="457.24" y="125.75999999999999" as="targetPoint" />
          </mxGeometry>
        </mxCell>
        <mxCell id="BdMyhIaGQ416cWbxKwbg-1" value="Javier" style="ellipse;whiteSpace=wrap;html=1;aspect=fixed;fontSize=35;strokeWidth=2;" vertex="1" parent="1">
          <mxGeometry x="480" y="40" width="120" height="120" as="geometry" />
        </mxCell>
        <mxCell id="XvZ-zwVpQwH_oAg_rlwi-13" style="rounded=0;orthogonalLoop=1;jettySize=auto;html=1;exitX=1;exitY=1;exitDx=0;exitDy=0;entryX=0;entryY=0;entryDx=0;entryDy=0;fillColor=#f8cecc;strokeWidth=3;" edge="1" parent="1" source="XvZ-zwVpQwH_oAg_rlwi-1" target="XvZ-zwVpQwH_oAg_rlwi-6">
          <mxGeometry relative="1" as="geometry" />
        </mxCell>
        <mxCell id="XvZ-zwVpQwH_oAg_rlwi-1" value="&lt;font style=&quot;font-size: 26px;&quot;&gt;Alejandro&lt;/font&gt;" style="ellipse;whiteSpace=wrap;html=1;aspect=fixed;fontSize=35;strokeWidth=2;" vertex="1" parent="1">
          <mxGeometry x="240" y="160" width="120" height="120" as="geometry" />
        </mxCell>
        <mxCell id="XvZ-zwVpQwH_oAg_rlwi-6" value="Beto" style="ellipse;whiteSpace=wrap;html=1;aspect=fixed;fontSize=35;strokeWidth=2;" vertex="1" parent="1">
          <mxGeometry x="360" y="320" width="120" height="120" as="geometry" />
        </mxCell>
        <mxCell id="D9mv15ldq2USIF0VcNb7-5" style="rounded=0;orthogonalLoop=1;jettySize=auto;html=1;exitX=0;exitY=1;exitDx=0;exitDy=0;entryX=1;entryY=0;entryDx=0;entryDy=0;strokeWidth=3;" edge="1" parent="1" source="XvZ-zwVpQwH_oAg_rlwi-10" target="D9mv15ldq2USIF0VcNb7-2">
          <mxGeometry relative="1" as="geometry" />
        </mxCell>
        <mxCell id="D9mv15ldq2USIF0VcNb7-6" style="rounded=0;orthogonalLoop=1;jettySize=auto;html=1;exitX=1;exitY=1;exitDx=0;exitDy=0;entryX=0;entryY=0;entryDx=0;entryDy=0;strokeWidth=3;" edge="1" parent="1" source="XvZ-zwVpQwH_oAg_rlwi-10" target="D9mv15ldq2USIF0VcNb7-3">
          <mxGeometry relative="1" as="geometry" />
        </mxCell>
        <mxCell id="XvZ-zwVpQwH_oAg_rlwi-10" value="Sergio" style="ellipse;whiteSpace=wrap;html=1;aspect=fixed;fontSize=35;strokeWidth=2;" vertex="1" parent="1">
          <mxGeometry x="720" y="160" width="120" height="120" as="geometry" />
        </mxCell>
        <mxCell id="D9mv15ldq2USIF0VcNb7-2" value="Karla" style="ellipse;whiteSpace=wrap;html=1;aspect=fixed;fontSize=35;strokeWidth=2;" vertex="1" parent="1">
          <mxGeometry x="560" y="320" width="120" height="120" as="geometry" />
        </mxCell>
        <mxCell id="D9mv15ldq2USIF0VcNb7-3" value="Victor" style="ellipse;whiteSpace=wrap;html=1;aspect=fixed;fontSize=35;strokeWidth=2;" vertex="1" parent="1">
          <mxGeometry x="880" y="320" width="120" height="120" as="geometry" />
        </mxCell>
      </root>
    </mxGraphModel>
  </diagram>
</mxfile>
